<svg xmlns="http://www.w3.org/2000/svg" viewBox="0 0 486 254.54"><defs><style>.cls-1{fill:none;stroke:#000;stroke-miterlimit:10;}.cls-2{fill:#a8b400;}</style></defs><g id="attribute2"><polyline class="cls-1" points="83.3 198.59 83.3 233.04 132 233.04"/><polyline class="cls-1" points="153.45 114.09 153.45 141.04 200 141.04"/><polyline class="cls-1" points="17 36.09 17.02 185.04 58.44 185.04"/><polyline class="cls-1" points="87 67.59 87 98.46 125.48 98.46"/><rect class="cls-2" y="0.59" width="69" height="37"/><path d="M160.83,245.2a8.2,8.2,0,0,1-6.42-2.58,10.46,10.46,0,0,1-2.32-7.21c0-3.16.8-5.63,2.41-7.39a8.45,8.45,0,0,1,6.59-2.65,13.37,13.37,0,0,1,4.75.86l-.48,1.55a13.87,13.87,0,0,0-4.3-.82,6.53,6.53,0,0,0-5.33,2.17c-1.21,1.44-1.81,3.53-1.81,6.25a9.21,9.21,0,0,0,1.81,6.05,6.2,6.2,0,0,0,5.06,2.19,12.46,12.46,0,0,0,4.84-.93v1.61A10.93,10.93,0,0,1,160.83,245.2Z"/><path d="M171.45,225.74v12.38a6,6,0,0,0,1.22,4.19,4.9,4.9,0,0,0,3.76,1.31c2.27,0,3.95-.58,5-1.72s1.61-3,1.61-5.61V225.74h1.72v19.11H183.3l-.31-2.64h-.11c-1.24,2-3.45,3-6.63,3q-6.51,0-6.52-7V225.74Z"/><path d="M198.06,225.37a15.51,15.51,0,0,1,2.61.25l-.34,1.67a10.15,10.15,0,0,0-2.48-.3,4.83,4.83,0,0,0-4,2.07,8.49,8.49,0,0,0-1.56,5.24v10.55h-1.74V225.74H192l.17,3.45h.13a8,8,0,0,1,2.51-3A5.87,5.87,0,0,1,198.06,225.37Z"/><path d="M211.93,225.37a15.3,15.3,0,0,1,2.6.25l-.33,1.67a10.15,10.15,0,0,0-2.48-.3,4.83,4.83,0,0,0-4,2.07,8.49,8.49,0,0,0-1.56,5.24v10.55h-1.74V225.74h1.48l.17,3.45h.12a8.05,8.05,0,0,1,2.52-3A5.87,5.87,0,0,1,211.93,225.37Z"/><path d="M225.13,245.2a8.29,8.29,0,0,1-6.49-2.57,10.3,10.3,0,0,1-2.33-7.18,11.24,11.24,0,0,1,2.25-7.33,7.43,7.43,0,0,1,6.06-2.75,6.55,6.55,0,0,1,5.33,2.36,9.73,9.73,0,0,1,2,6.4v1.4H218.14a9,9,0,0,0,1.84,6,6.44,6.44,0,0,0,5.15,2.08,16.31,16.31,0,0,0,2.88-.23,17.8,17.8,0,0,0,3.14-1V244a14.06,14.06,0,0,1-3,1A16.65,16.65,0,0,1,225.13,245.2Zm-.51-18.28a5.72,5.72,0,0,0-4.42,1.82,8.55,8.55,0,0,0-2,5.25h11.82a8.35,8.35,0,0,0-1.44-5.2A4.78,4.78,0,0,0,224.62,226.92Z"/><path d="M249.92,244.85V232.46a6.07,6.07,0,0,0-1.21-4.2A4.9,4.9,0,0,0,245,227c-2.29,0-4,.57-5,1.73s-1.59,3-1.59,5.61v10.55H236.6V225.74h1.47l.34,2.62h.1q1.86-3,6.63-3,6.51,0,6.5,7v12.5Z"/><path d="M262.42,243.65a12.89,12.89,0,0,0,2.88-.28v1.41a9.2,9.2,0,0,1-2.91.42,4.76,4.76,0,0,1-3.74-1.35,6.3,6.3,0,0,1-1.2-4.26V227.25h-2.83v-1l2.83-.79.88-4.32h.89v4.62h5.61v1.51h-5.61v12.1a5.48,5.48,0,0,0,.78,3.25A2.8,2.8,0,0,0,262.42,243.65Z"/><path d="M282.3,249.53H267.36v-1.45H282.3Z"/><path d="M294.37,245.2a7,7,0,0,1-6.44-3.3h-.12l.05,1.47c.05.87.07,1.82.07,2.85v7.28h-1.74V225.74h1.48l.33,2.73h.11q2-3.1,6.29-3.1a7.12,7.12,0,0,1,5.9,2.54q2,2.55,2,7.39c0,3.15-.71,5.58-2.14,7.31A7.12,7.12,0,0,1,294.37,245.2Zm0-1.55a5.29,5.29,0,0,0,4.54-2.18,10,10,0,0,0,1.61-6.09q0-8.43-6.08-8.42-3.34,0-4.9,1.83c-1.05,1.23-1.57,3.22-1.57,6v.56q0,4.49,1.5,6.4C290.44,243,292.07,243.65,294.33,243.65Z"/><path d="M319,244.85l-.44-3h-.14a9.1,9.1,0,0,1-3,2.61,8,8,0,0,1-3.6.76,6.25,6.25,0,0,1-4.38-1.44,5.16,5.16,0,0,1-1.56-4,4.93,4.93,0,0,1,2.33-4.34,12.68,12.68,0,0,1,6.74-1.64l3.64-.1v-1.27a6.48,6.48,0,0,0-1.11-4.11,4.29,4.29,0,0,0-3.57-1.39,11.87,11.87,0,0,0-5.5,1.48l-.65-1.52a14.61,14.61,0,0,1,6.22-1.47,6.18,6.18,0,0,1,4.7,1.63q1.56,1.64,1.56,5.1v12.71Zm-7-1.23a6.09,6.09,0,0,0,6.59-6.61v-1.88l-3.34.14q-4,.19-5.74,1.26a3.63,3.63,0,0,0-1.72,3.31,3.59,3.59,0,0,0,1.1,2.79A4.5,4.5,0,0,0,311.92,243.62Z"/><path d="M340.69,225.74V227l-3.95.24a6.78,6.78,0,0,1,1.58,4.33,5.81,5.81,0,0,1-1.84,4.47,6.94,6.94,0,0,1-4.93,1.71,10.91,10.91,0,0,1-1.83-.1,4.5,4.5,0,0,0-1.58,1.28,2.61,2.61,0,0,0-.55,1.57,1.46,1.46,0,0,0,.7,1.33,4.74,4.74,0,0,0,2.33.42H334a7.73,7.73,0,0,1,4.76,1.26,4.39,4.39,0,0,1,1.65,3.72,5.27,5.27,0,0,1-2.45,4.66q-2.44,1.65-7,1.65a9.59,9.59,0,0,1-5.58-1.39,4.49,4.49,0,0,1-2-3.87A4.57,4.57,0,0,1,324.6,245a6.32,6.32,0,0,1,3.31-1.77,3.48,3.48,0,0,1-1.38-1,2.52,2.52,0,0,1-.52-1.55c0-1.28.82-2.41,2.45-3.38a5.48,5.48,0,0,1-2.61-2.15,6.16,6.16,0,0,1-.93-3.37,6.08,6.08,0,0,1,1.82-4.6,6.87,6.87,0,0,1,4.92-1.73,9.18,9.18,0,0,1,2.91.37Zm-15.47,22.34q0,3.94,5.86,3.94,7.51,0,7.52-4.8a2.74,2.74,0,0,0-1.18-2.49,7.11,7.11,0,0,0-3.81-.78h-3.13Q325.22,244,325.22,248.08Zm1.46-16.38a4.41,4.41,0,0,0,1.35,3.44,6,6,0,0,0,7.26,0,4.67,4.67,0,0,0,1.27-3.52,4.77,4.77,0,0,0-1.31-3.66,5.14,5.14,0,0,0-3.67-1.23,4.86,4.86,0,0,0-3.59,1.31A5,5,0,0,0,326.68,231.7Z"/><path d="M351.39,245.2a8.31,8.31,0,0,1-6.5-2.57,10.3,10.3,0,0,1-2.33-7.18,11.24,11.24,0,0,1,2.25-7.33,7.44,7.44,0,0,1,6.07-2.75,6.54,6.54,0,0,1,5.32,2.36,9.73,9.73,0,0,1,2,6.4v1.4H344.39a9.06,9.06,0,0,0,1.84,6,6.44,6.44,0,0,0,5.16,2.08,16.11,16.11,0,0,0,2.87-.23,17.55,17.55,0,0,0,3.14-1V244a13.88,13.88,0,0,1-3,1A16.54,16.54,0,0,1,351.39,245.2Zm-.51-18.28a5.73,5.73,0,0,0-4.43,1.82A8.49,8.49,0,0,0,344.5,234h11.81a8.35,8.35,0,0,0-1.44-5.2A4.75,4.75,0,0,0,350.88,226.92Z"/><path d="M362.06,243.48c0-1.15.47-1.72,1.41-1.72s1.44.57,1.44,1.72-.48,1.72-1.44,1.72S362.06,244.63,362.06,243.48Z"/><path d="M383.73,244.85V232.46a6.07,6.07,0,0,0-1.21-4.2,4.9,4.9,0,0,0-3.76-1.3c-2.29,0-4,.57-5,1.73s-1.59,3-1.59,5.61v10.55h-1.74V217.5h1.74v8.7l-.09,2.44h.12a6.39,6.39,0,0,1,2.71-2.49,9.39,9.39,0,0,1,4.06-.78q6.51,0,6.51,7v12.5Z"/><path d="M396.23,243.65a12.92,12.92,0,0,0,2.89-.28v1.41a9.31,9.31,0,0,1-2.92.42,4.78,4.78,0,0,1-3.74-1.35,6.3,6.3,0,0,1-1.2-4.26V227.25h-2.83v-1l2.83-.79.88-4.32h.9v4.62h5.6v1.51H393v12.1a5.49,5.49,0,0,0,.77,3.25A2.8,2.8,0,0,0,396.23,243.65Z"/><path d="M426.85,244.85V232.32a6.2,6.2,0,0,0-1.09-4.08,4.12,4.12,0,0,0-3.34-1.28,5.45,5.45,0,0,0-4.34,1.61q-1.41,1.62-1.41,5.08v11.2H414.9V231.79q0-4.83-4.43-4.83a5.25,5.25,0,0,0-4.38,1.74q-1.36,1.76-1.37,5.6v10.55H403V225.74h1.44l.37,2.62h.11a5.37,5.37,0,0,1,2.25-2.2,6.58,6.58,0,0,1,3.21-.79c3,0,4.95,1.13,5.81,3.4h.07a6.51,6.51,0,0,1,2.5-2.52,7.28,7.28,0,0,1,3.58-.88A6.14,6.14,0,0,1,427,227c1,1.12,1.57,2.89,1.57,5.31v12.5Z"/><path d="M436,244.85h-1.74V217.5H436Z"/><path d="M229.05,147.88a4.53,4.53,0,0,1-2,3.94,9.53,9.53,0,0,1-5.54,1.38,13.12,13.12,0,0,1-6.08-1.18v-1.88a13.43,13.43,0,0,0,6.08,1.44,8,8,0,0,0,4.3-.94,2.86,2.86,0,0,0,1.46-2.5,3.09,3.09,0,0,0-1.16-2.43,12.91,12.91,0,0,0-3.85-1.93,22.33,22.33,0,0,1-4-1.78,5.68,5.68,0,0,1-1.75-1.69A4.27,4.27,0,0,1,216,138a3.91,3.91,0,0,1,1.8-3.39,8.77,8.77,0,0,1,5-1.25,15.14,15.14,0,0,1,5.87,1.16l-.65,1.59a13.68,13.68,0,0,0-5.22-1.16,7.5,7.5,0,0,0-3.71.77,2.37,2.37,0,0,0-1.37,2.14,3,3,0,0,0,1.06,2.39,14.86,14.86,0,0,0,4.16,2,20.13,20.13,0,0,1,3.76,1.68,5.34,5.34,0,0,1,1.77,1.69A4.2,4.2,0,0,1,229.05,147.88Z"/><path d="M249.47,143.27a10.81,10.81,0,0,1-2.27,7.3,7.81,7.81,0,0,1-6.26,2.63,8.11,8.11,0,0,1-4.43-1.21,7.81,7.81,0,0,1-2.93-3.48,12.66,12.66,0,0,1-1-5.24c0-3.12.75-5.55,2.27-7.29a7.8,7.8,0,0,1,6.22-2.61,7.67,7.67,0,0,1,6.18,2.65A10.88,10.88,0,0,1,249.47,143.27Zm-15.08,0a9.69,9.69,0,0,0,1.73,6.14,6.53,6.53,0,0,0,9.79,0,9.75,9.75,0,0,0,1.73-6.14,9.57,9.57,0,0,0-1.75-6.14A5.93,5.93,0,0,0,241,135a5.84,5.84,0,0,0-4.88,2.17A9.69,9.69,0,0,0,234.39,143.27Z"/><path d="M278.15,152.85V140.32a6.2,6.2,0,0,0-1.09-4.08,4.12,4.12,0,0,0-3.34-1.28,5.45,5.45,0,0,0-4.34,1.61q-1.41,1.62-1.41,5.08v11.2H266.2V139.79q0-4.83-4.43-4.83a5.25,5.25,0,0,0-4.38,1.74q-1.36,1.76-1.37,5.6v10.55h-1.74V133.74h1.44l.37,2.62h.11a5.37,5.37,0,0,1,2.25-2.2,6.58,6.58,0,0,1,3.21-.79q4.53,0,5.8,3.4h.08a6.51,6.51,0,0,1,2.5-2.52,7.28,7.28,0,0,1,3.58-.88,6.14,6.14,0,0,1,4.69,1.67c1,1.12,1.57,2.89,1.57,5.31v12.5Z"/><path d="M293.34,153.2a8.3,8.3,0,0,1-6.5-2.57,10.3,10.3,0,0,1-2.33-7.18,11.24,11.24,0,0,1,2.25-7.33,7.44,7.44,0,0,1,6.07-2.75,6.54,6.54,0,0,1,5.32,2.36,9.73,9.73,0,0,1,2,6.4v1.4H286.34a9,9,0,0,0,1.84,6,6.44,6.44,0,0,0,5.16,2.08,16.19,16.19,0,0,0,2.87-.23,17.55,17.55,0,0,0,3.14-1V152a14.06,14.06,0,0,1-3,1A16.54,16.54,0,0,1,293.34,153.2Zm-.51-18.28a5.73,5.73,0,0,0-4.43,1.82,8.49,8.49,0,0,0-1.95,5.25h11.81a8.35,8.35,0,0,0-1.44-5.2A4.75,4.75,0,0,0,292.83,134.92Z"/><path d="M317.18,157.53H302.23v-1.45h14.95Z"/><path d="M332.9,152.85l-.44-3h-.14a9.1,9.1,0,0,1-3,2.61,7.93,7.93,0,0,1-3.6.76,6.21,6.21,0,0,1-4.37-1.44,5.13,5.13,0,0,1-1.57-4,4.93,4.93,0,0,1,2.33-4.34,12.68,12.68,0,0,1,6.74-1.64l3.64-.1v-1.27a6.48,6.48,0,0,0-1.11-4.11,4.28,4.28,0,0,0-3.57-1.39,11.87,11.87,0,0,0-5.5,1.48l-.65-1.52a14.61,14.61,0,0,1,6.22-1.47,6.22,6.22,0,0,1,4.71,1.63q1.55,1.64,1.55,5.1v12.71Zm-7-1.23a6.09,6.09,0,0,0,6.59-6.61v-1.88l-3.34.14a12.62,12.62,0,0,0-5.74,1.26,3.62,3.62,0,0,0-1.71,3.31,3.55,3.55,0,0,0,1.1,2.79A4.46,4.46,0,0,0,325.87,151.62Z"/><path d="M347.36,133.37a15.39,15.39,0,0,1,2.6.25l-.34,1.67a10.07,10.07,0,0,0-2.47-.3,4.81,4.81,0,0,0-4,2.07,8.49,8.49,0,0,0-1.57,5.24v10.55h-1.74V133.74h1.48l.18,3.45h.12a8,8,0,0,1,2.51-3A5.88,5.88,0,0,1,347.36,133.37Z"/><path d="M360.16,151.65a12.89,12.89,0,0,0,2.88-.28v1.41a9.31,9.31,0,0,1-2.92.42,4.78,4.78,0,0,1-3.74-1.35,6.3,6.3,0,0,1-1.2-4.26V135.25h-2.83v-1l2.83-.79.88-4.32h.9v4.62h5.6v1.51H357v12.1a5.49,5.49,0,0,0,.77,3.25A2.82,2.82,0,0,0,360.16,151.65Z"/><path d="M366.66,128.43c0-1.12.37-1.68,1.1-1.68a1,1,0,0,1,.86.44,2.16,2.16,0,0,1,.3,1.24,2.24,2.24,0,0,1-.3,1.25,1,1,0,0,1-.86.46C367,130.14,366.66,129.57,366.66,128.43Zm2,24.42H366.9V133.74h1.74Z"/><path d="M382.16,153.2a8.19,8.19,0,0,1-6.42-2.58,10.42,10.42,0,0,1-2.32-7.21c0-3.16.8-5.63,2.41-7.39a8.44,8.44,0,0,1,6.59-2.65,13.41,13.41,0,0,1,4.75.86l-.48,1.55a13.93,13.93,0,0,0-4.31-.82,6.51,6.51,0,0,0-5.32,2.17c-1.21,1.44-1.81,3.53-1.81,6.25a9.21,9.21,0,0,0,1.81,6.05,6.19,6.19,0,0,0,5.06,2.19,12.41,12.41,0,0,0,4.83-.93v1.61A10.85,10.85,0,0,1,382.16,153.2Z"/><path d="M392.91,152.85h-1.74V125.5h1.74Z"/><path d="M406.58,153.2a8.28,8.28,0,0,1-6.49-2.57c-1.56-1.71-2.33-4.1-2.33-7.18a11.24,11.24,0,0,1,2.25-7.33,7.43,7.43,0,0,1,6.06-2.75,6.56,6.56,0,0,1,5.33,2.36,9.73,9.73,0,0,1,2,6.4v1.4H399.59a9,9,0,0,0,1.83,6,6.44,6.44,0,0,0,5.16,2.08,16.31,16.31,0,0,0,2.88-.23,17.49,17.49,0,0,0,3.13-1V152a13.81,13.81,0,0,1-3,1A16.73,16.73,0,0,1,406.58,153.2Zm-.51-18.28a5.75,5.75,0,0,0-4.43,1.82,8.61,8.61,0,0,0-1.95,5.25H411.5a8.35,8.35,0,0,0-1.44-5.2A4.75,4.75,0,0,0,406.07,134.92Z"/><path d="M417.26,151.48c0-1.15.47-1.72,1.4-1.72s1.44.57,1.44,1.72-.48,1.72-1.44,1.72S417.26,152.63,417.26,151.48Z"/><path d="M437.62,152.85l-.44-3H437a9.1,9.1,0,0,1-3,2.61,7.89,7.89,0,0,1-3.59.76,6.22,6.22,0,0,1-4.38-1.44,5.17,5.17,0,0,1-1.57-4,4.93,4.93,0,0,1,2.33-4.34,12.7,12.7,0,0,1,6.74-1.64l3.64-.1v-1.27a6.54,6.54,0,0,0-1.1-4.11,4.29,4.29,0,0,0-3.57-1.39,11.84,11.84,0,0,0-5.5,1.48l-.66-1.52a14.66,14.66,0,0,1,6.23-1.47,6.2,6.2,0,0,1,4.7,1.63q1.56,1.64,1.56,5.1v12.71Zm-7-1.23a6.08,6.08,0,0,0,6.59-6.61v-1.88l-3.34.14a12.65,12.65,0,0,0-5.74,1.26,4.07,4.07,0,0,0-.61,6.1A4.46,4.46,0,0,0,430.59,151.62Z"/><path d="M456.47,147.88a4.53,4.53,0,0,1-2,3.94A9.48,9.48,0,0,1,449,153.2,13.14,13.14,0,0,1,442.9,152v-1.88a13.43,13.43,0,0,0,6.08,1.44,8,8,0,0,0,4.3-.94,2.85,2.85,0,0,0,1.47-2.5,3.07,3.07,0,0,0-1.17-2.43,13,13,0,0,0-3.84-1.93,22.85,22.85,0,0,1-4-1.78,5.64,5.64,0,0,1-1.74-1.69,4.19,4.19,0,0,1-.59-2.3,3.91,3.91,0,0,1,1.8-3.39,8.76,8.76,0,0,1,5-1.25,15.19,15.19,0,0,1,5.88,1.16l-.65,1.59a13.69,13.69,0,0,0-5.23-1.16,7.49,7.49,0,0,0-3.7.77,2.36,2.36,0,0,0-1.38,2.14,3,3,0,0,0,1.07,2.39,14.71,14.71,0,0,0,4.16,2,20.44,20.44,0,0,1,3.76,1.68,5.4,5.4,0,0,1,1.76,1.69A4.12,4.12,0,0,1,456.47,147.88Z"/><path d="M468.87,153.2a7,7,0,0,1-6.43-3.3h-.12l.05,1.47c.05.87.07,1.82.07,2.85v7.28H460.7V133.74h1.48l.33,2.73h.11q2-3.1,6.29-3.1a7.12,7.12,0,0,1,5.9,2.54q2,2.55,2,7.39c0,3.15-.72,5.58-2.14,7.31A7.14,7.14,0,0,1,468.87,153.2Zm0-1.55a5.29,5.29,0,0,0,4.54-2.18,10,10,0,0,0,1.61-6.09q0-8.43-6.08-8.42a6.13,6.13,0,0,0-4.91,1.83c-1,1.23-1.56,3.22-1.56,6v.56q0,4.49,1.5,6.4C465,151,466.58,151.65,468.84,151.65Z"/><rect class="cls-2" x="79" y="38.59" width="144" height="37"/><rect class="cls-2" x="134" y="83.59" width="89" height="37"/><rect class="cls-2" x="74" y="165.59" width="196" height="37"/><line class="cls-1" x1="17" y1="56.04" x2="58.44" y2="56.04"/><path d="M22,25.88a4.53,4.53,0,0,1-2,3.94,9.47,9.47,0,0,1-5.53,1.38A13.16,13.16,0,0,1,8.44,30V28.14a13.47,13.47,0,0,0,6.09,1.44,8,8,0,0,0,4.29-.94,2.85,2.85,0,0,0,1.47-2.5,3.07,3.07,0,0,0-1.17-2.43,13,13,0,0,0-3.84-1.93,22.33,22.33,0,0,1-4-1.78,5.57,5.57,0,0,1-1.75-1.69A4.27,4.27,0,0,1,8.92,16a3.91,3.91,0,0,1,1.8-3.39,8.77,8.77,0,0,1,5-1.25,15.14,15.14,0,0,1,5.87,1.16L21,14.12A13.68,13.68,0,0,0,15.76,13a7.5,7.5,0,0,0-3.71.77,2.35,2.35,0,0,0-1.37,2.14,3,3,0,0,0,1.06,2.39,14.71,14.71,0,0,0,4.16,2A20.44,20.44,0,0,1,19.66,22a5.54,5.54,0,0,1,1.77,1.69A4.2,4.2,0,0,1,22,25.88Z"/><path d="M26,6.43c0-1.12.37-1.68,1.1-1.68a1,1,0,0,1,.86.44,2.16,2.16,0,0,1,.3,1.24A2.24,2.24,0,0,1,28,7.68a1,1,0,0,1-.86.46C26.37,8.14,26,7.57,26,6.43Zm2,24.42H26.24V11.74H28Z"/><path d="M39.4,29.65a12.89,12.89,0,0,0,2.88-.28v1.41a9.2,9.2,0,0,1-2.91.42,4.76,4.76,0,0,1-3.74-1.35,6.3,6.3,0,0,1-1.2-4.26V13.25H31.6v-1l2.83-.79.87-4.32h.9v4.62h5.61v1.51H36.2v12.1A5.56,5.56,0,0,0,37,28.6,2.83,2.83,0,0,0,39.4,29.65Z"/><path d="M53.19,31.2a8.28,8.28,0,0,1-6.49-2.57c-1.56-1.71-2.33-4.1-2.33-7.18a11.24,11.24,0,0,1,2.25-7.33,7.43,7.43,0,0,1,6.06-2.75A6.56,6.56,0,0,1,58,13.73a9.73,9.73,0,0,1,2,6.4v1.4H46.2a9,9,0,0,0,1.83,6,6.44,6.44,0,0,0,5.16,2.08,16.31,16.31,0,0,0,2.88-.23,17.49,17.49,0,0,0,3.13-1V30a13.88,13.88,0,0,1-3,1A16.54,16.54,0,0,1,53.19,31.2Zm-.51-18.28a5.75,5.75,0,0,0-4.43,1.82,8.61,8.61,0,0,0-2,5.25H58.11a8.35,8.35,0,0,0-1.44-5.2A4.75,4.75,0,0,0,52.68,12.92Z"/><path d="M93.83,197.2a8.2,8.2,0,0,1-6.42-2.58,10.46,10.46,0,0,1-2.32-7.21c0-3.16.8-5.63,2.41-7.39a8.45,8.45,0,0,1,6.59-2.65,13.37,13.37,0,0,1,4.75.86l-.48,1.55a13.87,13.87,0,0,0-4.3-.82,6.53,6.53,0,0,0-5.33,2.17c-1.21,1.44-1.81,3.53-1.81,6.25a9.21,9.21,0,0,0,1.81,6.05,6.2,6.2,0,0,0,5.06,2.19,12.46,12.46,0,0,0,4.84-.93v1.61A10.93,10.93,0,0,1,93.83,197.2Z"/><path d="M104.45,177.74v12.38a6,6,0,0,0,1.22,4.19,4.9,4.9,0,0,0,3.76,1.31c2.27,0,3.95-.58,5-1.72s1.61-3,1.61-5.61V177.74h1.72v19.11H116.3l-.31-2.64h-.11c-1.24,2-3.45,3-6.63,3q-6.51,0-6.52-7V177.74Z"/><path d="M131.06,177.37a15.51,15.51,0,0,1,2.61.25l-.34,1.67a10.15,10.15,0,0,0-2.48-.3,4.83,4.83,0,0,0-4,2.07,8.49,8.49,0,0,0-1.56,5.24v10.55h-1.74V177.74H125l.17,3.45h.13a8,8,0,0,1,2.51-3A5.87,5.87,0,0,1,131.06,177.37Z"/><path d="M144.93,177.37a15.3,15.3,0,0,1,2.6.25l-.33,1.67a10.15,10.15,0,0,0-2.48-.3,4.83,4.83,0,0,0-4,2.07,8.49,8.49,0,0,0-1.56,5.24v10.55h-1.74V177.74h1.48l.17,3.45h.12a8.05,8.05,0,0,1,2.52-3A5.87,5.87,0,0,1,144.93,177.37Z"/><path d="M158.13,197.2a8.29,8.29,0,0,1-6.49-2.57,10.3,10.3,0,0,1-2.33-7.18,11.24,11.24,0,0,1,2.25-7.33,7.43,7.43,0,0,1,6.06-2.75,6.55,6.55,0,0,1,5.33,2.36,9.73,9.73,0,0,1,2,6.4v1.4H151.14a9,9,0,0,0,1.84,6,6.44,6.44,0,0,0,5.15,2.08,16.31,16.31,0,0,0,2.88-.23,17.8,17.8,0,0,0,3.14-1V196a14.06,14.06,0,0,1-3,1A16.65,16.65,0,0,1,158.13,197.2Zm-.51-18.28a5.72,5.72,0,0,0-4.42,1.82,8.55,8.55,0,0,0-2,5.25h11.82a8.35,8.35,0,0,0-1.44-5.2A4.78,4.78,0,0,0,157.62,178.92Z"/><path d="M182.92,196.85V184.46a6.07,6.07,0,0,0-1.21-4.2A4.9,4.9,0,0,0,178,179c-2.29,0-4,.57-5,1.73s-1.59,3-1.59,5.61v10.55H169.6V177.74h1.47l.34,2.62h.1q1.86-3,6.63-3,6.51,0,6.5,7v12.5Z"/><path d="M195.42,195.65a12.89,12.89,0,0,0,2.88-.28v1.41a9.2,9.2,0,0,1-2.91.42,4.76,4.76,0,0,1-3.74-1.35,6.3,6.3,0,0,1-1.2-4.26V179.25h-2.83v-1l2.83-.79.88-4.32h.89v4.62h5.61v1.51h-5.61v12.1a5.48,5.48,0,0,0,.78,3.25A2.8,2.8,0,0,0,195.42,195.65Z"/><path d="M215.3,201.53H200.36v-1.45H215.3Z"/><path d="M225.75,177.37a7.89,7.89,0,0,1,3.59.76,7,7,0,0,1,2.7,2.58h.11c-.07-1.47-.11-2.92-.11-4.34V169.5h1.73v27.35h-1.15l-.43-2.92H232a7.05,7.05,0,0,1-6.25,3.27,7.49,7.49,0,0,1-6-2.46q-2.09-2.46-2.09-7.17c0-3.31.69-5.83,2.07-7.58A7.27,7.27,0,0,1,225.75,177.37Zm0,1.59a5.42,5.42,0,0,0-4.7,2.19,10.89,10.89,0,0,0-1.57,6.38q0,8.13,6.31,8.12a5.69,5.69,0,0,0,4.74-1.88q1.51-1.87,1.51-6.2v-.3c0-3-.49-5.08-1.48-6.37S228,179,225.75,179Z"/><path d="M239.31,172.43q0-1.68,1.11-1.68a1,1,0,0,1,.85.44,2.08,2.08,0,0,1,.31,1.24,2.16,2.16,0,0,1-.31,1.25,1,1,0,0,1-.85.46Q239.31,174.14,239.31,172.43Zm2,24.42h-1.74V177.74h1.74Z"/><path d="M254.6,177.37a15.3,15.3,0,0,1,2.6.25l-.33,1.67a10.21,10.21,0,0,0-2.48-.3,4.81,4.81,0,0,0-4,2.07,8.49,8.49,0,0,0-1.56,5.24v10.55h-1.74V177.74h1.47l.18,3.45h.12a8,8,0,0,1,2.52-3A5.85,5.85,0,0,1,254.6,177.37Z"/><path d="M101.8,67.85l-.44-3h-.14a9.1,9.1,0,0,1-3,2.61,7.9,7.9,0,0,1-3.6.76,6.21,6.21,0,0,1-4.37-1.44,5.13,5.13,0,0,1-1.57-4,4.93,4.93,0,0,1,2.33-4.34,12.68,12.68,0,0,1,6.74-1.64l3.64-.1V55.42a6.48,6.48,0,0,0-1.11-4.11,4.25,4.25,0,0,0-3.56-1.39,11.91,11.91,0,0,0-5.51,1.48l-.65-1.52a14.66,14.66,0,0,1,6.23-1.47,6.21,6.21,0,0,1,4.7,1.63c1,1.09,1.55,2.79,1.55,5.1V67.85Zm-7-1.23A6.09,6.09,0,0,0,101.36,60V58.13L98,58.27a12.62,12.62,0,0,0-5.74,1.26,3.62,3.62,0,0,0-1.71,3.31,3.55,3.55,0,0,0,1.1,2.79A4.46,4.46,0,0,0,94.77,66.62Z"/><path d="M116.26,48.37a15.39,15.39,0,0,1,2.6.25l-.33,1.67a10.21,10.21,0,0,0-2.48-.3,4.81,4.81,0,0,0-4,2.07,8.49,8.49,0,0,0-1.56,5.24V67.85h-1.74V48.74h1.47l.18,3.45h.12a8,8,0,0,1,2.51-3A5.91,5.91,0,0,1,116.26,48.37Z"/><path d="M129.06,66.65a12.89,12.89,0,0,0,2.88-.28v1.41a9.26,9.26,0,0,1-2.92.42,4.74,4.74,0,0,1-3.73-1.35,6.25,6.25,0,0,1-1.21-4.26V50.25h-2.83v-1l2.83-.79.88-4.32h.9v4.62h5.6v1.51h-5.6v12.1a5.56,5.56,0,0,0,.77,3.25A2.83,2.83,0,0,0,129.06,66.65Z"/><path d="M135.56,43.43q0-1.68,1.11-1.68a1,1,0,0,1,.85.44,2.16,2.16,0,0,1,.31,1.24,2.24,2.24,0,0,1-.31,1.25,1,1,0,0,1-.85.46Q135.56,45.14,135.56,43.43Zm2,24.42H135.8V48.74h1.74Z"/><path d="M151.06,68.2a8.2,8.2,0,0,1-6.42-2.58,10.42,10.42,0,0,1-2.32-7.21c0-3.16.8-5.63,2.41-7.39a8.44,8.44,0,0,1,6.59-2.65,13.41,13.41,0,0,1,4.75.86l-.48,1.55a13.92,13.92,0,0,0-4.3-.82A6.53,6.53,0,0,0,146,52.13c-1.21,1.44-1.81,3.53-1.81,6.25A9.21,9.21,0,0,0,146,64.43,6.2,6.2,0,0,0,151,66.62a12.46,12.46,0,0,0,4.84-.93V67.3A10.93,10.93,0,0,1,151.06,68.2Z"/><path d="M161.81,67.85h-1.74V40.5h1.74Z"/><path d="M175.48,68.2A8.29,8.29,0,0,1,169,65.63a10.3,10.3,0,0,1-2.33-7.18,11.24,11.24,0,0,1,2.25-7.33A7.43,7.43,0,0,1,175,48.37a6.56,6.56,0,0,1,5.33,2.36,9.73,9.73,0,0,1,1.95,6.4v1.4H168.49a9,9,0,0,0,1.83,6,6.47,6.47,0,0,0,5.16,2.08,16.31,16.31,0,0,0,2.88-.23,17.8,17.8,0,0,0,3.14-1V67a14.06,14.06,0,0,1-3,1A16.73,16.73,0,0,1,175.48,68.2ZM175,49.92a5.75,5.75,0,0,0-4.43,1.82A8.61,8.61,0,0,0,168.59,57h11.82a8.35,8.35,0,0,0-1.45-5.2A4.75,4.75,0,0,0,175,49.92Z"/><path d="M199,62.88a4.53,4.53,0,0,1-1.95,3.94,9.51,9.51,0,0,1-5.54,1.38A13.14,13.14,0,0,1,185.43,67V65.14a13.43,13.43,0,0,0,6.08,1.44,8,8,0,0,0,4.3-.94,2.85,2.85,0,0,0,1.47-2.5,3.07,3.07,0,0,0-1.17-2.43,13,13,0,0,0-3.84-1.93,22.51,22.51,0,0,1-4-1.78,5.68,5.68,0,0,1-1.75-1.69,4.27,4.27,0,0,1-.59-2.3,3.91,3.91,0,0,1,1.8-3.39,8.79,8.79,0,0,1,5-1.25,15.14,15.14,0,0,1,5.87,1.16L198,51.12A13.6,13.6,0,0,0,192.74,50a7.53,7.53,0,0,0-3.71.77,2.37,2.37,0,0,0-1.37,2.14,3,3,0,0,0,1.06,2.39,14.86,14.86,0,0,0,4.16,2A20.13,20.13,0,0,1,196.64,59a5.34,5.34,0,0,1,1.77,1.69A4.2,4.2,0,0,1,199,62.88Z"/><path d="M156.07,114.85H140V113.3l6.83-7.13a52.18,52.18,0,0,0,4.05-4.57,13,13,0,0,0,1.7-3,8.33,8.33,0,0,0,.55-3,5,5,0,0,0-1.51-3.75,5.46,5.46,0,0,0-3.92-1.44,9.76,9.76,0,0,0-6.16,2.34l-.95-1.21a10.82,10.82,0,0,1,7.14-2.71A7.45,7.45,0,0,1,153,90.57a6.42,6.42,0,0,1,1.93,4.94,10.2,10.2,0,0,1-1.29,4.93,29.28,29.28,0,0,1-4.72,5.88l-6.6,6.77v.07h13.75Z"/><path d="M176,101.93q0,6.76-2.06,10a6.9,6.9,0,0,1-6.25,3.25,6.77,6.77,0,0,1-6.12-3.35q-2.09-3.34-2.09-9.92c0-4.48.67-7.79,2-10a6.78,6.78,0,0,1,6.18-3.23,6.87,6.87,0,0,1,6.18,3.34Q176,95.45,176,101.93Zm-14.62,0c0,4,.52,6.93,1.56,8.83a5.41,5.41,0,0,0,9.59-.09q1.52-3,1.52-8.74t-1.52-8.65a5.43,5.43,0,0,0-9.66,0C161.85,95.25,161.36,98.13,161.36,101.93Z"/><path d="M188.69,114.85H187V96.13c0-1.7.07-3.46.21-5.29l-.54.51c-.19.16-2,1.59-5.44,4.27l-1-1.25,7-5.22h1.51Z"/><path d="M199.69,114.85l10.58-24H195.73V89.15h16.63v1.28l-10.61,24.42Z"/></g></svg>